<?xml version="1.0" standalone="no"?>
<!DOCTYPE svg PUBLIC "-//W3C//DTD SVG 20010904//EN"
 "http://www.w3.org/TR/2001/REC-SVG-20010904/DTD/svg10.dtd">
<svg version="1.0" xmlns="http://www.w3.org/2000/svg"
 width="620.000000pt" height="668.000000pt" viewBox="0 0 620.000000 668.000000"
 preserveAspectRatio="xMidYMid meet">

<g transform="translate(0.000000,668.000000) scale(0.100000,-0.100000)"
fill="#000000" stroke="none">
<path d="M0 3340 l0 -3340 3100 0 3100 0 0 3340 0 3340 -3100 0 -3100 0 0
-3340z m3336 2628 c18 -37 34 -72 34 -78 0 -5 16 -34 35 -64 19 -30 35 -60 35
-66 0 -7 9 -24 20 -40 11 -15 16 -30 12 -34 -3 -4 0 -11 7 -15 7 -5 15 -30 18
-57 4 -42 11 -55 49 -90 24 -23 44 -49 44 -57 0 -9 15 -35 33 -59 17 -24 50
-70 72 -102 22 -33 68 -89 101 -125 37 -40 64 -79 69 -98 3 -18 10 -33 13 -33
4 -1 18 -10 31 -20 21 -18 27 -40 30 -98 1 -7 9 -16 19 -19 23 -9 47 -44 44
-65 -2 -9 6 -21 16 -27 11 -6 27 -29 36 -51 9 -22 20 -40 26 -40 6 0 19 -15
30 -32 24 -39 28 -128 7 -128 -8 0 -24 -11 -36 -24 -16 -17 -20 -30 -15 -50 5
-21 3 -26 -14 -26 -10 0 -35 13 -55 28 -34 28 -37 28 -108 20 -40 -5 -89 -18
-110 -30 -35 -19 -39 -20 -69 -4 -43 21 -48 20 -62 -9 -13 -28 -30 -32 -51
-11 -8 8 -36 19 -63 25 -105 22 -151 37 -179 59 -23 19 -37 22 -70 17 -39 -5
-39 -5 -17 11 12 9 22 25 22 34 0 37 -164 47 -215 14 -18 -12 -23 -10 -45 16
-36 44 -64 39 -90 -14 -18 -38 -26 -45 -60 -51 -23 -4 -47 -2 -60 5 -21 11
-21 16 -15 97 5 58 14 98 27 120 19 32 20 56 3 95 -5 14 2 21 34 34 23 9 41
22 41 30 0 19 -53 50 -98 59 -20 4 -57 18 -84 31 -26 13 -57 24 -69 24 -17 0
-20 4 -15 24 3 13 -1 37 -9 52 -26 49 -19 102 16 135 18 17 32 42 36 63 5 30
2 36 -23 49 -16 8 -46 31 -66 51 -29 29 -38 45 -38 71 0 42 -26 59 -78 51 -47
-8 -68 4 -54 30 22 42 -23 70 -64 39 -28 -21 -43 -18 -50 10 -3 14 -17 34 -30
44 -35 27 -31 57 9 69 64 20 90 23 97 12 5 -7 15 -8 33 -1 15 6 39 8 54 6 75
-12 111 -12 148 1 48 16 166 19 182 3 7 -7 52 -10 135 -7 156 5 190 19 258
100 50 60 50 60 50 132 0 40 3 76 7 79 8 9 35 -30 79 -115z m-1096 -258 c0
-10 9 -24 21 -30 11 -7 27 -27 35 -46 15 -37 35 -42 79 -22 14 6 28 8 33 3 4
-4 1 -10 -5 -12 -21 -7 -15 -41 8 -54 12 -6 39 -9 60 -6 38 5 39 4 59 -41 24
-53 62 -97 103 -118 33 -18 37 -63 7 -82 -23 -14 -60 -83 -60 -112 0 -11 9
-29 21 -41 16 -16 19 -28 14 -58 -7 -40 8 -57 40 -45 8 3 29 -3 47 -14 18 -11
56 -26 83 -33 90 -22 105 -37 55 -56 -32 -12 -50 -41 -33 -52 23 -14 25 -52 4
-87 -12 -20 -21 -53 -21 -77 -1 -49 -20 -132 -38 -164 -10 -18 -18 -21 -42
-16 -28 5 -30 4 -30 -25 0 -38 -40 -72 -85 -72 -25 0 -47 -14 -109 -70 -81
-74 -97 -79 -137 -44 -21 18 -67 18 -104 -2 -19 -10 -42 -13 -62 -9 -19 3 -46
0 -68 -9 -24 -10 -43 -12 -59 -6 -34 13 -82 76 -96 126 -7 25 -20 50 -29 57
-31 23 -54 71 -58 123 l-4 53 61 7 c64 7 77 18 33 28 -16 3 -37 12 -47 21 -18
14 -18 16 18 55 38 42 46 82 25 122 -9 16 -7 24 5 37 14 14 18 14 26 1 5 -8 6
-18 4 -22 -10 -16 7 -48 25 -48 10 0 26 -9 37 -21 15 -17 26 -20 64 -15 25 3
59 6 76 6 38 0 103 26 110 45 3 7 1 22 -4 32 -7 13 -6 24 4 38 24 32 18 55
-15 55 -27 0 -30 3 -36 49 -4 28 -13 55 -21 61 -22 19 -89 -9 -116 -49 -13
-19 -38 -44 -56 -54 -31 -18 -34 -19 -52 -2 -16 14 -22 15 -35 5 -12 -10 -20
-7 -46 14 -37 31 -64 33 -104 6 -16 -11 -33 -20 -36 -20 -3 0 -9 21 -12 48 -4
26 -9 64 -13 85 -6 32 -4 37 12 37 32 0 84 38 84 60 0 12 7 44 16 71 12 37 24
53 48 64 54 27 99 75 105 114 5 30 12 38 40 47 36 12 60 44 61 84 0 14 15 40
37 62 41 42 73 50 73 18z m-525 -520 c21 0 24 -6 32 -72 5 -40 5 -81 1 -90
-10 -21 -68 -25 -97 -7 -16 11 -17 14 -3 41 13 28 13 31 -12 57 -33 34 -34 76
-3 101 22 19 22 19 40 -5 11 -14 29 -25 42 -25z m-138 14 c2 -7 -13 -12 -42
-12 -42 -1 -54 6 -38 22 11 11 76 3 80 -10z m12 -69 c11 -19 25 -35 31 -35 15
0 12 -17 -5 -24 -18 -7 -45 3 -45 16 0 5 -9 21 -20 36 -16 20 -18 27 -8 34 21
12 25 10 47 -27z m-99 3 c0 -19 -18 -43 -25 -36 -4 3 -2 16 5 27 12 24 20 27
20 9z m739 -74 c7 -25 7 -43 0 -56 -12 -21 8 -34 41 -25 24 6 26 -10 4 -35
-14 -15 -15 -20 -4 -33 19 -23 0 -37 -62 -47 -29 -4 -69 -10 -90 -14 -30 -5
-38 -2 -47 14 -6 11 -21 22 -35 26 -18 4 -23 11 -19 25 3 11 -4 27 -17 39 -24
22 -19 52 6 32 10 -9 22 -9 46 -1 35 12 98 64 98 81 0 11 34 28 57 29 7 1 17
-15 22 -35z m-690 -10 c3 -2 -1 -10 -7 -16 -14 -14 -43 -1 -50 22 -4 10 3 11
24 6 16 -4 31 -10 33 -12z m361 -34 c9 0 25 -9 35 -20 15 -17 16 -23 5 -50
-10 -24 -10 -37 -1 -56 20 -44 13 -70 -29 -108 -27 -24 -50 -36 -70 -36 -34 0
-34 -1 -18 51 8 28 8 46 1 62 -9 18 -7 28 7 47 20 27 18 42 -5 33 -8 -3 -15
-1 -15 5 0 6 6 12 13 15 10 4 10 7 0 18 -17 17 -16 29 1 29 7 0 19 7 26 15 9
11 16 13 24 5 5 -5 17 -10 26 -10z m-294 -77 c-3 -3 -13 -2 -23 2 -17 7 -17 8
2 15 19 7 34 -5 21 -17z m54 -4 c0 -11 -4 -18 -10 -14 -5 3 -7 12 -3 20 7 21
13 19 13 -6z m104 -13 c29 -26 32 -36 13 -36 -7 0 -26 -13 -42 -30 -31 -33
-59 -37 -89 -15 -20 15 -16 45 7 45 24 0 67 25 73 43 7 22 8 22 38 -7z m3496
-71 c0 -8 -15 -32 -34 -52 -30 -33 -36 -36 -51 -23 -9 7 -23 26 -31 42 -14 27
-14 28 13 29 16 0 37 4 48 9 32 14 55 11 55 -5z m-3580 -76 c9 -16 7 -19 -10
-19 -15 0 -20 7 -20 26 0 27 14 25 30 -7z m34 -137 c-9 -20 -23 -32 -35 -32
-30 0 -22 51 11 67 34 17 43 3 24 -35z m4154 -7 c2 -8 -2 -15 -8 -15 -22 0
-60 33 -60 52 0 20 0 20 33 -1 17 -11 33 -27 35 -36z m-4032 23 c28 -27 31
-45 7 -50 -51 -11 -74 12 -57 56 8 22 22 20 50 -6z m-240 -19 c19 -21 19 -21
-4 -18 -13 2 -22 8 -22 13 1 5 -4 13 -12 17 -10 7 -10 9 3 9 9 0 24 -9 35 -21z
m164 -9 c0 -5 -4 -10 -10 -10 -5 0 -10 5 -10 10 0 6 5 10 10 10 6 0 10 -4 10
-10z m1262 -17 c26 -25 31 -26 51 -13 33 21 114 29 154 15 29 -10 32 -13 18
-25 -36 -30 3 -73 46 -49 24 13 25 12 52 -16 15 -17 41 -29 78 -36 98 -18 109
-21 109 -29 0 -4 -10 -10 -23 -14 -73 -18 -157 -123 -157 -195 l0 -34 -42 6
c-23 3 -47 13 -54 21 -17 24 -51 19 -70 -9 -14 -21 -22 -25 -44 -20 -18 4 -33
1 -43 -9 -9 -9 -23 -16 -32 -16 -20 0 -37 -44 -29 -77 6 -22 4 -24 -15 -18
-32 10 -101 -4 -108 -22 -4 -9 -1 -24 5 -34 9 -14 9 -17 -1 -13 -7 2 -34 -5
-61 -16 -57 -26 -58 -46 -1 -75 22 -11 41 -20 41 -20 1 0 4 -10 8 -21 5 -17 2
-23 -15 -27 -19 -5 -20 -10 -14 -59 4 -29 13 -63 21 -76 13 -20 13 -25 -6 -49
-24 -31 -26 -56 -4 -74 13 -11 17 -10 25 4 13 23 36 21 49 -3 8 -14 21 -20 45
-20 19 0 35 -4 35 -9 0 -23 -13 -38 -28 -34 -15 3 -17 -3 -14 -45 5 -62 -8
-87 -58 -112 -47 -24 -110 -26 -174 -4 -60 21 -86 59 -86 128 0 55 -20 86 -55
86 -29 0 -43 44 -22 69 8 9 22 31 31 50 17 35 10 50 -21 51 -6 0 -13 12 -15
28 -3 24 -7 27 -40 26 -34 -1 -38 1 -38 24 0 16 -15 39 -45 68 -25 23 -45 52
-45 63 0 11 -5 31 -11 45 -16 35 20 81 64 81 49 0 47 32 -6 91 -75 84 -76 79
14 159 51 44 87 69 99 67 38 -6 104 42 112 83 2 11 10 19 18 17 7 -2 26 9 42
24 22 22 31 25 40 16 15 -15 102 -16 129 -2 10 6 19 18 19 26 0 22 19 54 32
54 7 0 25 -12 40 -27z m1153 -99 c12 -18 18 -51 19 -108 3 -94 19 -159 45
-183 36 -35 36 -104 -1 -180 -7 -15 -7 -31 1 -54 6 -17 11 -75 11 -129 0 -94
-1 -97 -30 -125 -29 -27 -30 -32 -27 -107 1 -51 7 -82 15 -87 7 -4 10 -15 7
-23 -3 -8 1 -22 9 -31 22 -22 20 -40 -9 -67 -14 -13 -25 -30 -25 -38 0 -10 8
-13 25 -10 17 4 25 1 25 -8 0 -23 21 -16 62 22 75 67 118 22 53 -55 -35 -43
-43 -65 -26 -75 9 -6 -16 -127 -28 -136 -4 -3 -13 -31 -20 -62 -11 -51 -31
-88 -31 -59 0 16 -63 13 -86 -4 -26 -20 -31 -19 -46 12 -30 61 -123 60 -160
-2 -11 -19 -26 -35 -34 -35 -8 0 -17 -7 -20 -15 -7 -17 -49 -20 -59 -5 -11 18
-53 11 -60 -10 -3 -11 -4 -24 -1 -28 3 -5 -9 -6 -26 -4 -19 3 -33 0 -39 -9 -6
-11 -14 -11 -42 -1 -18 7 -60 12 -93 12 -48 1 -64 5 -87 26 -24 20 -27 27 -17
39 7 8 9 26 6 40 -5 20 -3 25 13 25 11 0 23 -4 26 -10 3 -5 24 -10 46 -10 33
0 41 4 49 26 6 14 10 37 10 52 0 15 14 45 30 66 33 43 37 71 16 101 -7 11 -16
37 -20 57 -8 43 -29 53 -84 43 -45 -8 -91 -40 -102 -71 -6 -14 -18 -24 -29
-24 -30 0 -79 -32 -91 -59 -10 -21 -8 -27 6 -38 10 -7 28 -13 41 -13 14 0 23
-6 23 -15 0 -12 -4 -13 -19 -6 -14 8 -22 7 -31 -4 -19 -23 -22 -71 -5 -85 27
-22 19 -42 -15 -35 -27 6 -30 4 -30 -18 0 -22 -4 -25 -62 -30 -35 -3 -65 -3
-68 -1 -2 3 1 14 8 24 17 28 15 91 -4 118 -21 30 -67 53 -116 57 -22 2 -48 10
-57 18 -9 8 -32 20 -51 27 l-36 12 1 74 c0 49 4 74 11 74 7 0 26 13 43 29 26
24 31 36 31 75 0 33 4 46 14 46 9 0 17 16 21 41 8 47 -4 62 -46 56 -18 -2 -31
3 -39 16 -9 15 -19 18 -41 13 -34 -7 -37 5 -9 41 19 25 19 27 3 45 -21 24 -35
118 -17 118 19 0 27 36 14 60 -6 12 -27 28 -46 36 -32 13 -39 34 -12 34 6 0
16 7 23 17 11 14 13 13 19 -10 5 -21 12 -27 35 -27 16 0 34 7 41 15 10 12 6
21 -19 52 l-31 38 32 11 c26 9 39 8 60 -2 15 -8 34 -14 43 -14 17 0 20 16 5
25 -5 3 -10 21 -10 39 0 43 38 71 93 67 26 -2 37 2 37 11 0 31 22 38 53 16 20
-15 46 -21 86 -22 l56 -1 0 51 c0 44 5 57 38 97 20 25 46 49 57 52 11 4 20 10
20 15 0 5 14 17 32 26 26 14 37 14 69 4 43 -14 69 -8 69 16 0 12 5 14 18 9 41
-18 72 -17 99 4 23 19 39 22 102 20 63 -1 82 -6 108 -25 52 -39 98 -28 89 21
-7 36 9 55 44 55 19 0 33 -8 45 -26z m-2285 -159 c38 -10 72 -29 107 -60 51
-45 83 -57 83 -32 0 7 16 21 36 30 30 15 41 16 70 5 30 -11 36 -10 57 10 29
27 43 27 100 3 29 -13 46 -27 51 -43 3 -12 28 -47 56 -75 60 -63 63 -76 14
-67 -30 6 -36 4 -41 -15 -6 -23 -3 -23 -93 -22 -76 2 -97 -8 -82 -35 5 -11 13
-39 17 -64 4 -24 14 -55 22 -67 10 -15 13 -34 9 -55 -5 -25 0 -40 20 -70 15
-21 34 -38 44 -38 13 0 16 -7 12 -32 -3 -18 -11 -42 -18 -53 -20 -28 -17 -44
14 -75 15 -16 36 -38 46 -49 25 -27 46 -27 46 -1 0 26 16 26 31 -1 9 -17 17
-20 42 -15 17 4 41 15 52 26 26 25 37 25 59 2 11 -13 14 -28 10 -50 -5 -23 0
-42 16 -69 20 -35 21 -38 5 -50 -11 -7 -15 -19 -11 -28 5 -14 1 -15 -24 -10
-26 6 -30 4 -30 -14 0 -29 -36 -27 -83 4 -24 17 -37 33 -37 48 0 12 -7 33 -16
45 -14 20 -21 22 -62 16 -26 -4 -64 -13 -84 -21 -51 -20 -80 -11 -113 37 -32
47 -63 52 -132 21 -37 -17 -42 -24 -45 -56 -3 -34 -7 -38 -53 -57 -27 -11 -58
-24 -67 -29 -28 -14 -38 -11 -50 19 -21 48 -49 83 -89 108 -33 21 -38 27 -29
44 18 33 12 108 -10 130 -11 11 -20 22 -20 25 0 3 9 5 20 5 24 0 26 22 5 40
-8 7 -15 24 -15 39 0 40 -20 103 -41 130 -10 13 -16 28 -13 33 4 6 0 21 -7 35
-12 23 -18 25 -61 21 -45 -5 -48 -3 -48 18 0 12 -4 26 -10 29 -5 3 -10 19 -10
36 0 34 -4 35 -37 9 -14 -11 -35 -20 -47 -19 -14 0 -16 2 -6 6 35 13 40 24 23
49 -8 13 -24 24 -34 24 -25 0 -24 22 1 45 11 10 20 28 20 39 1 34 24 56 59 56
25 0 31 4 32 23 0 21 1 21 10 -3 7 -17 6 -31 -2 -46 -6 -12 -9 -27 -5 -32 3
-6 2 -13 -4 -17 -13 -8 -13 -25 0 -25 24 0 68 42 63 61 -4 12 0 19 10 19 8 0
20 7 27 15 11 13 8 19 -14 38 -18 16 -25 29 -20 41 5 12 1 19 -15 23 -43 11
-20 25 37 21 45 -2 62 1 76 14 16 16 20 16 69 -7 29 -14 77 -32 107 -40z m498
-317 c6 -18 13 -49 16 -69 5 -27 18 -46 46 -69 45 -37 48 -45 20 -53 -12 -3
-22 -17 -26 -35 -7 -36 -16 -41 -64 -35 -44 6 -60 35 -60 109 0 32 -5 56 -14
63 -8 7 -16 36 -18 66 l-3 55 47 0 c44 0 47 -2 56 -32z m562 -43 c10 -12 10
-15 -4 -15 -9 0 -16 7 -16 15 0 8 2 15 4 15 2 0 9 -7 16 -15z m-1332 -69 c1
-21 14 -57 27 -81 34 -57 33 -75 -5 -75 -26 0 -31 5 -40 40 -6 21 -15 42 -20
45 -14 9 -12 89 2 103 20 20 33 8 36 -32z m877 -117 c4 -6 22 -8 46 -4 34 6
39 4 39 -13 0 -11 7 -25 15 -32 12 -10 13 -16 1 -39 -20 -37 -36 -131 -23
-131 5 0 4 -7 -3 -15 -7 -8 -25 -15 -40 -15 -21 0 -29 6 -34 25 -9 34 -30 31
-49 -6 l-15 -32 -18 34 c-9 19 -24 39 -33 46 -14 10 -14 15 -2 35 8 13 17 37
21 53 4 19 16 35 33 43 15 7 27 21 27 31 0 29 22 42 35 20z m-820 -90 c-4 -5
-20 -9 -38 -9 -33 0 -28 15 8 22 24 5 37 0 30 -13z m528 -276 c24 -36 34 -43
61 -43 19 0 51 6 72 13 22 8 53 17 71 20 30 6 34 4 49 -31 27 -63 30 -67 65
-84 42 -22 92 -23 109 -3 7 8 26 15 42 15 26 0 30 3 26 23 -4 21 -1 23 26 19
17 -3 41 -11 52 -19 16 -10 36 -12 72 -7 l49 6 7 -35 c14 -74 -16 -125 -91
-153 -34 -13 -49 -27 -73 -69 -17 -29 -30 -61 -30 -72 0 -11 -11 -37 -25 -57
-32 -47 -35 -120 -6 -136 11 -5 22 -23 26 -39 3 -17 15 -42 26 -56 11 -14 16
-25 11 -25 -5 0 -21 -11 -36 -25 -23 -21 -26 -32 -28 -92 -1 -37 -3 -52 -5
-33 -5 42 -47 74 -110 82 -32 5 -45 2 -58 -12 -14 -15 -28 -17 -104 -12 -56 3
-101 0 -125 -8 -42 -14 -71 0 -63 31 3 10 -1 26 -9 36 -7 10 -14 25 -14 33 -1
37 -17 44 -53 21 -45 -28 -63 -27 -79 6 -34 68 -89 52 -123 -37 -20 -53 -23
-55 -70 -66 -28 -6 -62 -17 -77 -24 -22 -11 -34 -10 -68 4 -22 9 -50 16 -61
16 -15 0 -19 5 -14 19 4 12 0 21 -11 25 -15 6 -16 8 0 24 9 10 16 33 16 50 0
23 9 38 37 61 21 17 47 31 58 31 11 1 31 7 44 14 23 13 21 13 -28 18 -29 3
-59 12 -68 20 -23 24 -9 71 30 93 47 27 77 60 86 92 6 22 14 29 38 31 l30 3
-12 37 c-10 28 -10 39 -2 44 7 5 0 8 -16 8 -19 0 -31 7 -39 25 -6 14 -19 25
-29 25 -28 0 -49 11 -49 25 0 14 49 33 90 35 14 1 44 2 68 3 23 0 42 6 42 12
0 6 29 22 65 34 64 23 65 24 65 61 0 34 4 39 38 53 54 23 73 17 105 -30z
m1427 -137 c0 -18 7 -39 15 -46 22 -19 18 -55 -10 -88 -14 -17 -25 -39 -25
-49 0 -44 -21 -83 -45 -83 -13 0 -25 7 -29 15 -7 18 -50 20 -64 2 -6 -7 -9
-22 -6 -34 3 -11 -2 -35 -10 -52 -19 -36 -51 -41 -91 -15 -30 19 -32 34 -6 34
31 0 46 26 32 56 -19 42 -14 64 14 64 14 0 28 6 31 14 9 24 -15 56 -41 56 -27
0 -33 21 -12 38 6 6 28 12 47 14 28 2 38 10 56 42 27 47 56 65 107 66 36 0 37
-1 37 -34z m-663 -121 c21 -9 40 -21 44 -27 4 -6 31 -13 61 -16 48 -4 55 -8
81 -45 20 -28 27 -47 23 -63 -3 -13 -9 -36 -12 -50 -10 -37 9 -45 97 -38 63 6
80 4 103 -11 20 -13 38 -16 71 -12 37 6 48 3 73 -18 24 -20 39 -24 83 -23 30
0 73 -2 97 -7 31 -6 42 -4 42 5 0 9 10 10 35 6 33 -7 36 -5 41 24 7 31 14 36
29 21 6 -5 24 -11 40 -13 l30 -4 -28 -12 c-23 -10 -28 -17 -25 -39 2 -23 14
-33 63 -58 34 -16 72 -38 85 -47 14 -10 32 -18 42 -18 20 0 24 -30 8 -60 -5
-10 -34 -34 -65 -54 -30 -21 -62 -50 -70 -67 -11 -20 -23 -29 -40 -29 -41 0
-75 -19 -88 -48 -8 -19 -18 -26 -31 -24 -26 5 -50 -26 -34 -45 15 -18 7 -24
-41 -30 -36 -5 -41 -3 -41 14 0 26 -10 35 -26 22 -9 -7 -20 -6 -39 7 -22 14
-25 21 -19 50 5 26 3 34 -9 34 -26 0 -30 -64 -7 -114 20 -45 25 -66 14 -66
-11 0 -34 29 -34 43 0 12 -13 15 -57 14 -51 -2 -58 -5 -58 -22 0 -11 -7 -21
-15 -23 -8 -2 -23 -14 -33 -28 -25 -34 1 -33 42 2 29 24 31 25 31 5 0 -11 5
-23 10 -26 16 -10 1 -25 -26 -25 -23 0 -34 -15 -15 -22 14 -5 -7 -94 -26 -110
-13 -10 -17 -10 -20 0 -3 6 -13 12 -24 12 -20 0 -26 15 -9 25 10 6 15 45 6 45
-2 0 -11 3 -20 6 -10 4 -16 1 -16 -9 0 -8 -7 -20 -15 -27 -12 -10 -16 -9 -21
4 -10 25 -43 19 -54 -10 -8 -20 -14 -24 -33 -18 -12 3 -29 13 -38 20 -8 8 -23
14 -32 14 -24 0 -31 18 -29 81 2 56 -10 85 -22 54 -3 -8 -12 -15 -21 -15 -19
0 -19 -7 0 -27 9 -8 14 -20 12 -27 -6 -19 -50 -19 -63 -1 -15 20 -34 11 -34
-16 0 -21 -6 -24 -62 -34 l-37 -6 6 35 c4 29 -1 46 -27 88 -19 29 -48 69 -66
88 -43 46 -54 78 -54 158 0 71 4 81 34 98 36 20 42 41 19 66 -11 13 -24 37
-27 54 -4 17 -16 41 -27 53 -16 17 -19 29 -14 54 4 18 13 39 20 47 7 8 19 35
26 60 7 25 17 50 23 55 6 6 18 23 26 39 9 17 29 34 47 40 18 6 43 21 55 34 27
26 37 27 85 7z m-1250 -40 c1 -5 -1 -16 -6 -24 -7 -11 -13 -10 -35 5 -14 11
-26 23 -26 27 0 12 63 4 67 -8z m-86 -28 c-13 -13 -26 -3 -16 12 3 6 11 8 17
5 6 -4 6 -10 -1 -17z m48 -21 c9 -11 9 -16 0 -21 -10 -7 -28 10 -29 28 0 12
17 8 29 -7z m2419 -98 c10 -23 20 -28 47 -28 19 0 37 5 40 10 20 33 88 -19 88
-67 -1 -46 -15 -113 -24 -113 -5 0 -11 11 -15 25 -3 13 -12 29 -20 36 -12 9
-14 4 -14 -30 0 -31 -4 -41 -16 -41 -13 0 -15 -6 -9 -27 17 -72 17 -93 0 -99
-11 -5 -21 -1 -27 10 -5 9 -15 21 -21 26 -7 6 -25 21 -40 35 -15 14 -66 43
-112 65 -111 54 -118 63 -66 90 41 20 51 35 29 42 -7 3 -1 15 14 32 14 16 33
37 42 48 26 30 87 21 104 -14z m-2528 -38 c0 -5 -2 -10 -4 -10 -3 0 -8 5 -11
10 -3 6 -1 10 4 10 6 0 11 -4 11 -10z m-10 -59 c0 -16 -31 -42 -41 -35 -6 4
-3 14 7 25 18 20 34 25 34 10z m470 -155 c0 -8 11 -27 24 -43 l24 -28 38 20
c22 11 42 21 47 23 4 2 7 -10 7 -27 0 -17 5 -31 10 -31 6 0 10 -13 10 -28 0
-16 8 -36 18 -45 16 -15 23 -15 77 -1 44 12 81 14 142 9 69 -6 84 -4 89 8 16
41 114 17 133 -32 38 -102 50 -126 78 -154 73 -72 127 -192 78 -173 -10 4 -19
-3 -25 -19 -5 -13 -19 -35 -31 -49 -21 -24 -24 -25 -41 -9 -10 9 -18 22 -18
30 0 7 -7 13 -15 13 -19 0 -33 -32 -17 -38 7 -2 12 -16 12 -32 0 -28 24 -48
36 -29 3 5 13 7 23 4 9 -2 32 -1 50 5 52 15 66 -2 41 -51 -11 -21 -19 -48 -17
-61 3 -29 -29 -36 -49 -11 -12 14 -16 15 -21 4 -3 -7 -14 -22 -25 -33 -17 -17
-18 -23 -8 -49 7 -16 11 -32 8 -34 -11 -11 -66 18 -71 37 -7 24 9 61 22 53 5
-2 14 1 20 9 9 10 4 19 -24 40 -30 23 -35 33 -35 67 0 43 -21 54 -41 20 -7
-11 -19 -16 -30 -14 -13 4 -22 -3 -29 -21 -5 -14 -14 -26 -19 -26 -5 0 -8 -26
-6 -57 3 -60 19 -83 58 -83 14 0 18 -5 14 -20 -3 -13 1 -24 14 -30 10 -6 19
-18 19 -26 0 -13 -10 -15 -54 -12 -49 3 -53 1 -45 -14 5 -10 14 -18 19 -18 16
0 11 -30 -6 -37 -8 -3 -20 -17 -25 -30 -6 -15 -15 -23 -23 -20 -9 4 -16 -3
-20 -19 -9 -34 -21 -27 -48 26 -23 45 -23 45 -80 48 -73 4 -79 20 -32 78 37
44 56 50 47 14 -4 -13 0 -20 10 -20 20 0 27 34 13 62 -11 20 -9 26 16 46 l28
24 0 -27 c0 -32 20 -29 37 5 16 33 -1 53 -37 45 -20 -4 -29 -2 -33 9 -9 24
-25 19 -41 -11 -30 -55 -33 -58 -50 -44 -12 10 -17 9 -26 -8 -6 -12 -15 -21
-20 -21 -5 0 -26 -11 -46 -25 -20 -14 -40 -22 -45 -19 -16 9 -9 -8 7 -21 15
-10 15 -14 -1 -45 -13 -26 -15 -38 -6 -57 15 -32 17 -30 -35 -53 -49 -21 -90
-25 -112 -11 -16 9 -31 68 -33 126 -1 30 -4 23 -10 -29 -10 -78 -24 -98 -81
-123 -29 -13 -40 -25 -48 -52 -5 -20 -10 -41 -10 -47 0 -13 -57 -27 -71 -18
-5 3 -9 13 -9 23 0 11 -9 21 -21 24 -21 6 -21 6 -2 37 17 29 17 32 1 44 -9 7
-19 24 -22 39 -3 15 -8 39 -11 53 -5 21 -10 25 -29 20 -15 -4 -28 0 -36 9 -7
8 -21 15 -31 15 -25 0 -60 40 -54 61 3 10 1 20 -5 24 -14 9 -13 88 2 103 19
19 37 14 50 -13 15 -34 34 -26 30 13 -2 27 2 32 25 38 46 10 51 14 11 10 -46
-6 -55 6 -31 42 23 34 20 107 -3 98 -9 -3 -26 5 -40 19 -17 18 -24 20 -24 9 0
-9 -7 -14 -17 -12 -25 5 -28 29 -4 35 12 3 21 10 21 15 0 6 15 8 38 3 30 -5
35 -4 25 6 -22 22 -14 37 22 43 53 10 57 45 11 96 -21 23 -36 50 -36 64 0 21
-6 25 -32 28 -34 3 -55 38 -23 38 8 0 20 11 25 25 5 14 14 25 19 25 5 0 13 9
16 21 6 18 13 20 48 16 23 -2 56 -10 74 -18 28 -11 39 -11 80 3 26 9 67 21 91
27 24 7 45 17 46 24 2 7 9 31 15 55 8 28 20 46 34 52 31 13 37 12 37 -4z
m2101 -125 c-12 -7 -21 -23 -21 -34 0 -11 -7 -28 -15 -37 -12 -14 -12 -19 0
-43 13 -25 12 -27 -5 -27 -10 0 -20 -7 -24 -15 -3 -9 -18 -15 -35 -15 -35 0
-48 -15 -31 -35 17 -21 -16 -32 -42 -16 -26 16 -36 6 -19 -20 12 -20 11 -20
-17 -14 -25 5 -30 2 -36 -17 l-7 -23 -14 26 c-13 25 -18 27 -70 23 -52 -4 -56
-3 -50 15 3 11 1 22 -5 26 -18 11 1 27 27 21 20 -6 26 -2 34 24 13 35 35 50
76 50 22 0 36 9 59 40 16 22 32 40 35 40 10 0 103 74 113 88 6 11 15 8 38 -15
29 -28 29 -28 9 -42z m-2739 -237 c-5 -26 -30 -64 -43 -64 -5 0 -14 10 -19 23
-7 18 -3 26 18 44 31 26 49 25 44 -3z m188 5 c0 -9 -7 -22 -15 -29 -8 -7 -15
-21 -15 -31 0 -13 -5 -17 -16 -12 -13 5 -15 2 -9 -15 5 -18 2 -22 -14 -22 -15
0 -21 6 -21 23 0 16 -9 26 -30 34 -16 6 -30 16 -30 22 0 14 47 15 55 1 13 -22
26 -9 20 19 -6 30 -6 30 34 28 31 -1 41 -5 41 -18z m58 -59 c-2 -8 -16 -16
-31 -18 -21 -3 -27 1 -27 15 0 13 8 18 30 18 22 0 30 -4 28 -15z m2120 -24 c4
-35 -14 -59 -23 -30 -4 10 -11 27 -16 36 -13 26 -11 30 14 26 16 -2 23 -11 25
-32z m-2313 11 c12 -10 14 -16 7 -21 -13 -8 -52 10 -52 24 0 14 23 12 45 -3z
m2205 -16 c0 -14 -18 -23 -30 -16 -6 4 -8 11 -5 16 8 12 35 12 35 0z m-2220
-65 c-18 -23 -27 -20 -33 11 -7 39 2 48 26 25 17 -18 18 -23 7 -36z m2150 24
c-18 -11 -24 -6 -16 16 5 14 9 15 19 5 9 -9 9 -14 -3 -21z m-2060 -6 c0 -9 -5
-14 -12 -12 -18 6 -21 28 -4 28 9 0 16 -7 16 -16z m2127 -57 c-2 -12 -8 -31
-12 -41 -7 -16 -5 -18 13 -14 26 7 29 -7 5 -21 -16 -9 -16 -13 -5 -31 15 -25
9 -38 -11 -22 -11 9 -18 5 -35 -18 -12 -16 -19 -36 -16 -44 3 -9 1 -16 -6 -16
-6 0 -8 -4 -5 -10 3 -5 -1 -10 -9 -10 -12 0 -16 10 -16 35 0 29 -4 35 -22 35
-20 0 -20 1 -5 13 20 15 12 61 -9 53 -8 -3 -20 -8 -27 -11 -22 -9 -46 26 -36
54 9 21 14 23 60 19 l51 -5 -6 32 c-6 30 -4 33 31 47 35 13 39 13 52 -5 7 -10
11 -28 8 -40z m-2167 33 c0 -5 -4 -10 -9 -10 -6 0 -13 5 -16 10 -3 6 1 10 9
10 9 0 16 -4 16 -10z m2010 -5 c10 -12 10 -15 -4 -15 -9 0 -16 7 -16 15 0 8 2
15 4 15 2 0 9 -7 16 -15z m-670 -15 c0 -5 -4 -10 -10 -10 -5 0 -10 5 -10 10 0
6 5 10 10 10 6 0 10 -4 10 -10z m134 -22 c8 -13 6 -21 -7 -36 -17 -18 -17 -21
0 -51 17 -30 63 -45 63 -21 0 11 30 13 54 4 20 -8 22 -73 4 -96 -7 -9 -31 -18
-53 -20 -37 -3 -40 -1 -37 22 l3 24 -21 -22 c-11 -12 -24 -22 -28 -22 -15 0
-52 32 -52 45 0 7 -6 15 -12 17 -29 10 0 143 37 170 15 12 36 5 49 -14z
m-1594 -32 c0 -37 -15 -49 -49 -41 -38 8 -46 20 -26 37 9 7 24 21 33 30 19 21
42 7 42 -26z m1460 28 c0 -2 -9 -4 -20 -4 -11 0 -20 4 -20 9 0 5 9 7 20 4 11
-3 20 -7 20 -9z m-1400 -4 c0 -5 -2 -10 -4 -10 -3 0 -8 5 -11 10 -3 6 -1 10 4
10 6 0 11 -4 11 -10z m70 0 c0 -5 -4 -10 -10 -10 -5 0 -10 5 -10 10 0 6 5 10
10 10 6 0 10 -4 10 -10z m80 -30 c0 -6 -4 -10 -10 -10 -5 0 -10 -4 -10 -10 0
-5 9 -10 20 -10 12 0 20 -7 20 -17 0 -13 -3 -14 -12 -5 -7 7 -20 12 -29 12
-13 0 -17 8 -16 34 1 30 3 33 19 25 10 -5 18 -14 18 -19z m1465 1 c-3 -11 -1
-22 5 -26 5 -3 10 -1 10 6 0 8 4 8 15 -1 23 -19 3 -33 -34 -25 -35 8 -37 12
-15 43 19 27 27 28 19 3z m391 -7 c-6 -32 -5 -31 -39 -39 -17 -5 -27 -3 -27 4
0 6 4 11 9 11 5 0 19 11 32 25 30 31 30 31 25 -1z m-641 -4 c-3 -5 -10 -10
-16 -10 -5 0 -9 5 -9 10 0 6 7 10 16 10 8 0 12 -4 9 -10z m-1375 -31 c0 -9
-36 -49 -44 -49 -2 0 -7 7 -10 16 -4 10 3 23 16 34 23 18 38 18 38 -1z m1793
-4 c-5 -16 -33 -21 -33 -7 0 13 22 32 31 26 5 -2 6 -11 2 -19z m-1693 -4 c0
-6 -4 -13 -10 -16 -5 -3 -10 1 -10 9 0 9 5 16 10 16 6 0 10 -4 10 -9z m1835
-17 c12 -13 19 -14 28 -5 18 18 27 13 27 -17 0 -41 -9 -45 -42 -17 -16 14 -34
25 -39 25 -5 0 -9 7 -9 15 0 20 15 19 35 -1z m-105 -9 c0 -8 -4 -15 -9 -15
-13 0 -22 16 -14 24 11 11 23 6 23 -9z m-1905 -5 c3 -5 -3 -10 -15 -10 -12 0
-18 5 -15 10 3 6 10 10 15 10 5 0 12 -4 15 -10z m-65 -35 c0 -17 -5 -25 -18
-25 -9 0 -23 -9 -30 -20 -14 -23 -42 -27 -42 -6 0 27 12 46 30 46 10 0 23 7
30 15 18 22 30 18 30 -10z m148 7 c4 -14 -34 -16 -42 -3 -6 10 13 21 28 17 6
-1 12 -8 14 -14z m2098 -27 c-2 -5 -12 -9 -22 -7 -10 2 -27 4 -36 5 -11 1 -18
10 -18 23 0 22 0 22 40 6 22 -9 38 -21 36 -27z m-1946 15 c0 -5 -4 -10 -10
-10 -5 0 -10 5 -10 10 0 6 5 10 10 10 6 0 10 -4 10 -10z m-170 -25 c17 -9 30
-22 30 -30 0 -17 -16 -20 -25 -5 -4 6 -14 8 -23 6 -10 -3 -23 -1 -31 3 -12 8
-12 12 -2 25 16 19 15 19 51 1z m1456 -62 c-8 -8 -36 10 -36 25 0 13 3 12 20
-3 11 -10 18 -20 16 -22z m-1586 11 c11 -12 11 -18 -2 -31 -14 -14 -18 -13
-38 7 -18 18 -20 24 -9 31 21 13 35 11 49 -7z m1935 5 c10 -15 -1 -23 -20 -15
-9 3 -13 10 -10 16 8 13 22 13 30 -1z m-1815 -9 c0 -5 -4 -10 -10 -10 -5 0
-10 5 -10 10 0 6 5 10 10 10 6 0 10 -4 10 -10z m80 -10 c0 -12 -28 -25 -36
-17 -9 9 6 27 22 27 8 0 14 -5 14 -10z m1384 -109 c-2 -2 -19 4 -39 13 -39 19
-43 43 -10 63 18 10 21 7 36 -30 8 -23 14 -44 13 -46z m-1428 65 c20 -20 17
-36 -6 -36 -15 0 -20 7 -20 25 0 29 6 31 26 11z m-268 -31 c12 -25 1 -42 -18
-30 -12 7 -13 55 -2 55 5 0 14 -11 20 -25z m92 15 c0 -5 -4 -10 -10 -10 -5 0
-10 5 -10 10 0 6 5 10 10 10 6 0 10 -4 10 -10z m2010 0 c0 -5 -7 -10 -15 -10
-8 0 -15 5 -15 10 0 6 7 10 15 10 8 0 15 -4 15 -10z m-1950 -12 c0 -7 3 -23 6
-35 9 -32 -14 -29 -26 3 -10 26 -6 44 11 44 5 0 9 -6 9 -12z m48 -10 c7 -7 12
-20 12 -29 0 -21 -36 -66 -46 -57 -4 4 -1 14 6 23 7 9 10 27 6 45 -6 32 2 38
22 18z m1293 -11 c-1 -12 -15 -9 -19 4 -3 6 1 10 8 8 6 -3 11 -8 11 -12z
m-391 -17 c0 -13 -5 -18 -15 -14 -8 4 -15 12 -15 20 0 8 7 14 15 14 8 0 15 -9
15 -20z m550 -20 c0 -5 -4 -10 -9 -10 -6 0 -13 5 -16 10 -3 6 1 10 9 10 9 0
16 -4 16 -10z m-1295 -10 c3 -5 26 -18 50 -29 43 -19 62 -51 30 -51 -8 0 -15
-9 -15 -21 0 -31 -20 -61 -36 -55 -8 3 -29 -7 -47 -23 -51 -45 -68 -46 -106
-6 l-33 35 26 35 c14 18 36 37 48 41 27 8 57 43 58 67 0 18 15 23 25 7z m1235
-5 c-12 -15 -30 -12 -30 6 0 5 10 9 21 9 18 0 19 -2 9 -15z m-180 -25 c0 -5
-4 -10 -10 -10 -5 0 -10 5 -10 10 0 6 5 10 10 10 6 0 10 -4 10 -10z m260 -10
c11 -11 20 -24 20 -30 0 -21 -29 -9 -50 20 -18 25 -19 30 -6 30 9 0 25 -9 36
-20z m-1498 -42 c-7 -7 -12 -8 -12 -2 0 6 3 14 7 17 3 4 9 5 12 2 2 -3 -1 -11
-7 -17z m1243 1 c-18 -5 -33 -5 -39 1 -7 7 4 10 30 9 39 -1 39 -1 9 -10z m325
-5 c0 -8 -4 -12 -10 -9 -5 3 -10 10 -10 16 0 5 5 9 10 9 6 0 10 -7 10 -16z
m-545 -21 c-9 -39 -15 -42 -60 -34 -31 5 -40 11 -40 26 0 20 28 31 84 34 20 1
22 -2 16 -26z m-136 -22 c8 -14 7 -20 -3 -24 -17 -7 -40 18 -31 33 10 15 23
12 34 -9z m392 9 c5 0 9 -7 9 -15 0 -8 -9 -15 -20 -15 -11 0 -20 2 -20 4 0 2
-3 12 -7 22 -5 14 -3 16 11 11 10 -4 22 -7 27 -7z m261 -25 c0 -5 -5 -11 -11
-13 -6 -2 -11 4 -11 13 0 9 5 15 11 13 6 -2 11 -8 11 -13z m-864 -13 l23 -18
-36 -16 c-32 -14 -36 -14 -44 1 -7 11 -4 21 7 33 21 21 22 21 50 0z m-103 -37
c14 -13 25 -32 25 -43 0 -10 5 -23 12 -30 9 -9 4 -12 -22 -12 -46 1 -80 30
-80 67 0 51 26 58 65 18z m300 15 c3 -5 1 -10 -4 -10 -6 0 -11 5 -11 10 0 6 2
10 4 10 3 0 8 -4 11 -10z m-655 -9 c0 -13 -26 -32 -33 -24 -8 7 11 33 24 33 5
0 9 -4 9 -9z m550 -1 c10 -6 11 -12 5 -19 -13 -12 -59 5 -50 19 8 12 25 13 45
0z m140 -10 c0 -5 -2 -10 -4 -10 -3 0 -8 5 -11 10 -3 6 -1 10 4 10 6 0 11 -4
11 -10z m-38 -20 c32 -19 32 -20 8 -20 -25 0 -50 16 -50 32 0 12 6 10 42 -12z
m-892 -15 c0 -9 -9 -15 -25 -15 -16 0 -25 6 -25 15 0 9 9 15 25 15 16 0 25 -6
25 -15z m740 -9 c0 -14 -28 -42 -34 -35 -2 2 -7 14 -10 27 -6 19 -4 22 18 22
15 0 26 -6 26 -14z m100 -6 c0 -22 -1 -23 -24 -14 -13 5 -14 9 -5 20 16 20 29
17 29 -6z m-170 0 c0 -5 -2 -10 -4 -10 -3 0 -8 5 -11 10 -3 6 -1 10 4 10 6 0
11 -4 11 -10z m230 -20 c0 -5 -6 -10 -14 -10 -8 0 -18 5 -21 10 -3 6 3 10 14
10 12 0 21 -4 21 -10z m-855 -10 c10 -16 -14 -40 -40 -40 -21 0 -35 17 -35 41
0 13 67 11 75 -1z m421 -27 c-10 -10 -19 5 -10 18 6 11 8 11 12 0 2 -7 1 -15
-2 -18z m67 -30 c-7 -2 -19 -2 -25 0 -7 3 -2 5 12 5 14 0 19 -2 13 -5z m535
-18 c-24 -28 -25 -28 -33 -16 -7 12 22 41 41 41 10 0 8 -7 -8 -25z m-570 -17
c19 -19 14 -30 -10 -26 -13 2 -24 11 -26 21 -4 20 18 23 36 5z m272 -23 c0
-41 -22 -48 -41 -13 -10 18 -8 24 7 35 28 20 34 16 34 -22z m-350 15 c0 -5 -7
-10 -15 -10 -8 0 -15 5 -15 10 0 6 7 10 15 10 8 0 15 -4 15 -10z m230 -10 c0
-13 -5 -18 -15 -14 -16 7 -19 17 -8 27 12 13 23 7 23 -13z m-97 -17 c-7 -2
-19 -2 -25 0 -7 3 -2 5 12 5 14 0 19 -2 13 -5z m-88 -18 c0 -5 -15 -11 -32
-13 -32 -3 -45 11 -20 22 19 8 52 2 52 -9z m85 -25 c0 -5 -9 -10 -21 -10 -11
0 -17 5 -14 10 3 6 13 10 21 10 8 0 14 -4 14 -10z m146 -606 c64 -26 76 -42
68 -89 -3 -22 -11 -46 -17 -53 -18 -22 -90 -57 -132 -63 -22 -4 -75 -16 -118
-27 -57 -16 -84 -19 -103 -12 -14 6 -43 10 -64 10 -100 0 -120 54 -50 133 58
65 109 87 230 96 55 4 103 11 107 14 11 11 38 8 79 -9z"/>
<path d="M1900 2538 c0 -7 -11 -23 -24 -37 -17 -19 -25 -40 -28 -76 l-3 -50
43 -6 c28 -3 48 -13 58 -27 14 -21 20 -22 97 -16 45 4 91 13 101 20 11 8 26
35 32 61 11 42 11 50 -4 61 -8 6 -22 12 -29 12 -7 0 -13 6 -13 13 0 8 -9 22
-21 33 -19 17 -22 18 -68 1 -61 -21 -70 -21 -101 3 -29 23 -40 25 -40 8z m38
-34 c8 -14 18 -16 53 -10 115 20 108 20 120 -8 8 -18 20 -26 37 -26 19 0 23
-4 17 -17 -3 -10 -9 -30 -12 -45 -8 -39 -19 -45 -100 -51 -66 -5 -73 -4 -98
19 -16 15 -38 24 -59 24 -32 0 -32 1 -27 38 6 35 38 91 53 92 4 0 11 -7 16
-16z"/>
</g>
</svg>
